<svg xmlns="http://www.w3.org/2000/svg" height="16" width="16" version="1.1" viewBox="0 0 4.2333333 4.2333334"><path style="color-rendering:auto;text-decoration-color:#000000;color:#000000;font-variant-numeric:normal;shape-rendering:auto;font-variant-ligatures:normal;text-decoration-line:none;font-variant-position:normal;mix-blend-mode:normal;solid-color:#000000;font-feature-settings:normal;shape-padding:0;font-variant-alternates:normal;text-indent:0;dominant-baseline:auto;font-variant-caps:normal;image-rendering:auto;white-space:normal;text-decoration-style:solid;text-orientation:mixed;isolation:auto;text-transform:none" d="m12 2.5v1.502c-2.4978 0.0019-4.2118 1.7918-5.7109 3.291-1.5 1.5-2.7891 2.709-4.2891 2.709a1.0002 1.0002 0 1 0 0 2.002c2.5 0 4.2071-1.793 5.707-3.2931 1.4987-1.4987 2.795-2.7068 4.293-2.7089v1.498l3.5-2.5-3.5-2.5zm-10.1 1.5a1.0001 1.0001 0 0 0 -0.0039 0.002 1.0016 1.0016 0 1 0 0.1035 2c0.9857 0 1.8834 0.5482 2.8066 1.332 0.2521-0.2359 0.5029-0.4716 0.7813-0.75 0.2103-0.2103 0.4512-0.4439 0.6797-0.6699-1.1709-1.0367-2.5237-1.9121-4.2676-1.9121a1.0001 1.0001 0 0 0 -0.0996 -0.002zm10.1 4.5v1.502c-0.985-0.001-1.884-0.5507-2.8086-1.334-0.2503 0.2344-0.4991 0.4678-0.7754 0.7441-0.2126 0.2126-0.4583 0.4472-0.6894 0.6759 1.1727 1.037 2.5304 1.915 4.2734 1.916v1.496l3.5-2.5-3.5-2.5z" transform="scale(.26458)" fill="#fff"/></svg>
