<svg xmlns="http://www.w3.org/2000/svg" height="16" width="16" version="1.1" viewBox="0 0 4.2333333 4.2333334"><g transform="translate(0 -292.77)"><path style="color-rendering:auto;text-decoration-color:#000000;color:#000000;font-variant-numeric:normal;shape-rendering:auto;font-variant-ligatures:normal;text-decoration-line:none;font-variant-position:normal;mix-blend-mode:normal;solid-color:#000000;font-feature-settings:normal;shape-padding:0;font-variant-alternates:normal;text-indent:0;dominant-baseline:auto;font-variant-caps:normal;image-rendering:auto;white-space:normal;text-decoration-style:solid;text-orientation:mixed;isolation:auto;text-transform:none" d="m12 3v1.5c-2.2479 0.002-3.8564 1.6454-5.3555 3.1445-1.5 1.5001-2.8945 2.8555-4.6445 2.8555a0.50005 0.50005 0 1 0 0 0.998c2.25 0 3.8516-1.6464 5.3516-3.1464 1.4988-1.4989 2.9004-2.8457 4.6484-2.8477v1.4961l2-2-2-2zm-10.049 1.498a0.50005 0.50005 0 0 0 -0.002 0.002 0.50264 0.50264 0 0 0 0.0508 1.0039c1.4646 0 2.6815 0.957 3.918 2.1445 0.1247-0.1227 0.2436-0.2318 0.3711-0.3593 0.1117-0.1118 0.2352-0.2277 0.3496-0.3418-1.3055-1.2694-2.737-2.4473-4.6387-2.4473a0.50005 0.50005 0 0 0 -0.0488 -0.002zm6.1269 3.8497c-0.1247 0.1226-0.2437 0.232-0.3711 0.3593-0.1117 0.1118-0.2353 0.2277-0.3496 0.3418 1.3063 1.2682 2.7426 2.4472 4.6426 2.4492v1.502l2-2-2-2v1.5c-1.463-0.002-2.6848-0.9642-3.9219-2.1523z" transform="matrix(.26458 0 0 .26458 0 292.77)" fill="#fff"/></g></svg>
